<mxfile host="app.diagrams.net" modified="2021-01-09T13:50:14.421Z" agent="5.0 (Macintosh; Intel Mac OS X 10_15_6) AppleWebKit/605.1.15 (KHTML, like Gecko) Version/14.0.2 Safari/605.1.15" etag="spo3RlParDbhuXwilsX2" version="14.1.8" type="github">
  <diagram id="EQniDeiwJCucYwURcc62" name="第 1 页">
    <mxGraphModel dx="1183" dy="566" grid="1" gridSize="10" guides="1" tooltips="1" connect="1" arrows="1" fold="1" page="1" pageScale="1" pageWidth="827" pageHeight="1169" math="0" shadow="0">
      <root>
        <mxCell id="0" />
        <mxCell id="1" parent="0" />
        <mxCell id="yIXdv3XE3rvMQng1rq4m-22" style="edgeStyle=orthogonalEdgeStyle;rounded=0;orthogonalLoop=1;jettySize=auto;html=1;exitX=1;exitY=0.5;exitDx=0;exitDy=0;entryX=1;entryY=0.5;entryDx=0;entryDy=0;curved=1;" edge="1" parent="1" source="yIXdv3XE3rvMQng1rq4m-1" target="yIXdv3XE3rvMQng1rq4m-5">
          <mxGeometry relative="1" as="geometry" />
        </mxCell>
        <mxCell id="yIXdv3XE3rvMQng1rq4m-23" value="获取锁失败" style="edgeLabel;html=1;align=center;verticalAlign=middle;resizable=0;points=[];" vertex="1" connectable="0" parent="yIXdv3XE3rvMQng1rq4m-22">
          <mxGeometry x="0.1926" relative="1" as="geometry">
            <mxPoint as="offset" />
          </mxGeometry>
        </mxCell>
        <mxCell id="yIXdv3XE3rvMQng1rq4m-24" style="edgeStyle=orthogonalEdgeStyle;curved=1;rounded=0;orthogonalLoop=1;jettySize=auto;html=1;" edge="1" parent="1" source="yIXdv3XE3rvMQng1rq4m-1" target="yIXdv3XE3rvMQng1rq4m-11">
          <mxGeometry relative="1" as="geometry" />
        </mxCell>
        <mxCell id="yIXdv3XE3rvMQng1rq4m-25" value="获取锁成功" style="edgeLabel;html=1;align=center;verticalAlign=middle;resizable=0;points=[];" vertex="1" connectable="0" parent="yIXdv3XE3rvMQng1rq4m-24">
          <mxGeometry x="0.0421" y="1" relative="1" as="geometry">
            <mxPoint as="offset" />
          </mxGeometry>
        </mxCell>
        <mxCell id="yIXdv3XE3rvMQng1rq4m-36" style="edgeStyle=orthogonalEdgeStyle;curved=1;rounded=0;orthogonalLoop=1;jettySize=auto;html=1;entryX=0.413;entryY=0;entryDx=0;entryDy=0;entryPerimeter=0;strokeColor=#FF0000;exitX=0.5;exitY=0;exitDx=0;exitDy=0;" edge="1" parent="1" source="yIXdv3XE3rvMQng1rq4m-1" target="yIXdv3XE3rvMQng1rq4m-11">
          <mxGeometry relative="1" as="geometry">
            <Array as="points">
              <mxPoint x="325" y="80" />
              <mxPoint x="603" y="80" />
            </Array>
          </mxGeometry>
        </mxCell>
        <mxCell id="yIXdv3XE3rvMQng1rq4m-37" value="获取lock成功" style="edgeLabel;html=1;align=center;verticalAlign=middle;resizable=0;points=[];" vertex="1" connectable="0" parent="yIXdv3XE3rvMQng1rq4m-36">
          <mxGeometry x="-0.0809" y="1" relative="1" as="geometry">
            <mxPoint as="offset" />
          </mxGeometry>
        </mxCell>
        <mxCell id="yIXdv3XE3rvMQng1rq4m-1" value="锁lock" style="rounded=0;whiteSpace=wrap;html=1;" vertex="1" parent="1">
          <mxGeometry x="270" y="130" width="110" height="40" as="geometry" />
        </mxCell>
        <mxCell id="yIXdv3XE3rvMQng1rq4m-3" value="同步队列（双向链表）" style="shape=process;whiteSpace=wrap;html=1;backgroundOutline=1;" vertex="1" parent="1">
          <mxGeometry x="210" y="260" width="260" height="60" as="geometry" />
        </mxCell>
        <mxCell id="yIXdv3XE3rvMQng1rq4m-32" style="edgeStyle=orthogonalEdgeStyle;rounded=0;orthogonalLoop=1;jettySize=auto;html=1;entryX=0;entryY=1;entryDx=0;entryDy=0;curved=1;" edge="1" parent="1" source="yIXdv3XE3rvMQng1rq4m-4" target="yIXdv3XE3rvMQng1rq4m-1">
          <mxGeometry relative="1" as="geometry">
            <Array as="points">
              <mxPoint x="180" y="290" />
              <mxPoint x="180" y="170" />
            </Array>
          </mxGeometry>
        </mxCell>
        <mxCell id="yIXdv3XE3rvMQng1rq4m-4" value="&lt;font style=&quot;font-size: 10px&quot; color=&quot;#ff0000&quot;&gt;head&lt;/font&gt;" style="text;html=1;strokeColor=none;fillColor=none;align=center;verticalAlign=middle;whiteSpace=wrap;rounded=0;" vertex="1" parent="1">
          <mxGeometry x="211" y="280" width="26" height="20" as="geometry" />
        </mxCell>
        <mxCell id="yIXdv3XE3rvMQng1rq4m-5" value="&lt;font size=&quot;1&quot; color=&quot;#ff0000&quot;&gt;tail&lt;/font&gt;" style="text;html=1;strokeColor=none;fillColor=none;align=center;verticalAlign=middle;whiteSpace=wrap;rounded=0;" vertex="1" parent="1">
          <mxGeometry x="444" y="280" width="26" height="20" as="geometry" />
        </mxCell>
        <mxCell id="yIXdv3XE3rvMQng1rq4m-6" value="头节点" style="text;html=1;strokeColor=none;fillColor=none;align=center;verticalAlign=middle;whiteSpace=wrap;rounded=0;" vertex="1" parent="1">
          <mxGeometry x="204" y="240" width="40" height="20" as="geometry" />
        </mxCell>
        <mxCell id="yIXdv3XE3rvMQng1rq4m-7" value="尾节点" style="text;html=1;strokeColor=none;fillColor=none;align=center;verticalAlign=middle;whiteSpace=wrap;rounded=0;" vertex="1" parent="1">
          <mxGeometry x="430" y="240" width="40" height="20" as="geometry" />
        </mxCell>
        <mxCell id="yIXdv3XE3rvMQng1rq4m-28" style="edgeStyle=orthogonalEdgeStyle;curved=1;rounded=0;orthogonalLoop=1;jettySize=auto;html=1;entryX=1;entryY=1;entryDx=0;entryDy=0;exitX=0;exitY=0.5;exitDx=0;exitDy=0;" edge="1" parent="1" source="yIXdv3XE3rvMQng1rq4m-9" target="yIXdv3XE3rvMQng1rq4m-5">
          <mxGeometry relative="1" as="geometry">
            <Array as="points">
              <mxPoint x="150" y="410" />
              <mxPoint x="150" y="360" />
              <mxPoint x="500" y="360" />
              <mxPoint x="500" y="300" />
            </Array>
          </mxGeometry>
        </mxCell>
        <mxCell id="yIXdv3XE3rvMQng1rq4m-8" value="等待队列（单向链表）" style="shape=process;whiteSpace=wrap;html=1;backgroundOutline=1;" vertex="1" parent="1">
          <mxGeometry x="210" y="380" width="260" height="60" as="geometry" />
        </mxCell>
        <mxCell id="yIXdv3XE3rvMQng1rq4m-9" value="&lt;font style=&quot;font-size: 10px&quot; color=&quot;#ff0000&quot;&gt;head&lt;/font&gt;" style="text;html=1;strokeColor=none;fillColor=none;align=center;verticalAlign=middle;whiteSpace=wrap;rounded=0;" vertex="1" parent="1">
          <mxGeometry x="210" y="400" width="26" height="20" as="geometry" />
        </mxCell>
        <mxCell id="yIXdv3XE3rvMQng1rq4m-10" value="&lt;font size=&quot;1&quot; color=&quot;#ff0000&quot;&gt;tail&lt;/font&gt;" style="text;html=1;strokeColor=none;fillColor=none;align=center;verticalAlign=middle;whiteSpace=wrap;rounded=0;" vertex="1" parent="1">
          <mxGeometry x="444" y="400" width="26" height="20" as="geometry" />
        </mxCell>
        <mxCell id="yIXdv3XE3rvMQng1rq4m-26" style="edgeStyle=orthogonalEdgeStyle;curved=1;rounded=0;orthogonalLoop=1;jettySize=auto;html=1;entryX=0.438;entryY=1.083;entryDx=0;entryDy=0;entryPerimeter=0;" edge="1" parent="1" source="yIXdv3XE3rvMQng1rq4m-11" target="yIXdv3XE3rvMQng1rq4m-8">
          <mxGeometry relative="1" as="geometry">
            <Array as="points">
              <mxPoint x="610" y="470" />
              <mxPoint x="324" y="470" />
            </Array>
          </mxGeometry>
        </mxCell>
        <mxCell id="yIXdv3XE3rvMQng1rq4m-27" value="condition.await" style="edgeLabel;html=1;align=center;verticalAlign=middle;resizable=0;points=[];" vertex="1" connectable="0" parent="yIXdv3XE3rvMQng1rq4m-26">
          <mxGeometry x="-0.3795" y="-12" relative="1" as="geometry">
            <mxPoint as="offset" />
          </mxGeometry>
        </mxCell>
        <mxCell id="yIXdv3XE3rvMQng1rq4m-11" value="condition" style="rounded=1;whiteSpace=wrap;html=1;" vertex="1" parent="1">
          <mxGeometry x="570" y="135" width="80" height="30" as="geometry" />
        </mxCell>
        <mxCell id="yIXdv3XE3rvMQng1rq4m-20" style="edgeStyle=orthogonalEdgeStyle;rounded=0;orthogonalLoop=1;jettySize=auto;html=1;entryX=0;entryY=0.75;entryDx=0;entryDy=0;" edge="1" parent="1" source="yIXdv3XE3rvMQng1rq4m-18" target="yIXdv3XE3rvMQng1rq4m-1">
          <mxGeometry relative="1" as="geometry" />
        </mxCell>
        <mxCell id="yIXdv3XE3rvMQng1rq4m-21" value="lock.lock" style="edgeLabel;html=1;align=center;verticalAlign=middle;resizable=0;points=[];" vertex="1" connectable="0" parent="yIXdv3XE3rvMQng1rq4m-20">
          <mxGeometry x="-0.3059" y="-1" relative="1" as="geometry">
            <mxPoint as="offset" />
          </mxGeometry>
        </mxCell>
        <mxCell id="yIXdv3XE3rvMQng1rq4m-18" value="server" style="rounded=1;whiteSpace=wrap;html=1;" vertex="1" parent="1">
          <mxGeometry x="30" y="150" width="70" height="20" as="geometry" />
        </mxCell>
        <mxCell id="yIXdv3XE3rvMQng1rq4m-34" style="edgeStyle=orthogonalEdgeStyle;curved=1;rounded=0;orthogonalLoop=1;jettySize=auto;html=1;entryX=0.436;entryY=-0.1;entryDx=0;entryDy=0;entryPerimeter=0;strokeColor=#FF0000;" edge="1" parent="1" source="yIXdv3XE3rvMQng1rq4m-19" target="yIXdv3XE3rvMQng1rq4m-1">
          <mxGeometry relative="1" as="geometry">
            <Array as="points">
              <mxPoint x="318" y="100" />
            </Array>
          </mxGeometry>
        </mxCell>
        <mxCell id="yIXdv3XE3rvMQng1rq4m-38" value="lock.lock" style="edgeLabel;html=1;align=center;verticalAlign=middle;resizable=0;points=[];" vertex="1" connectable="0" parent="yIXdv3XE3rvMQng1rq4m-34">
          <mxGeometry x="-0.5164" y="-3" relative="1" as="geometry">
            <mxPoint as="offset" />
          </mxGeometry>
        </mxCell>
        <mxCell id="yIXdv3XE3rvMQng1rq4m-19" value="clinet" style="rounded=1;whiteSpace=wrap;html=1;" vertex="1" parent="1">
          <mxGeometry x="30" y="100" width="70" height="20" as="geometry" />
        </mxCell>
        <mxCell id="yIXdv3XE3rvMQng1rq4m-29" value="&lt;font color=&quot;#ff0000&quot;&gt;由等待队列中移入到同步队列中&lt;/font&gt;" style="text;html=1;strokeColor=none;fillColor=none;align=center;verticalAlign=middle;whiteSpace=wrap;rounded=0;" vertex="1" parent="1">
          <mxGeometry x="210" y="330" width="210" height="20" as="geometry" />
        </mxCell>
        <mxCell id="yIXdv3XE3rvMQng1rq4m-33" value="&lt;font color=&quot;#ff0000&quot;&gt;&lt;span&gt;其他线程释放锁后，&lt;br&gt;该线程再次抢占lock&lt;/span&gt;&lt;/font&gt;" style="text;html=1;strokeColor=none;fillColor=none;align=center;verticalAlign=middle;whiteSpace=wrap;rounded=0;" vertex="1" parent="1">
          <mxGeometry x="60" y="210" width="116" height="30" as="geometry" />
        </mxCell>
      </root>
    </mxGraphModel>
  </diagram>
</mxfile>
